<?xml version="1.0" encoding="UTF-8" standalone="no"?><!DOCTYPE svg PUBLIC "-//W3C//DTD SVG 1.1//EN" "http://www.w3.org/Graphics/SVG/1.1/DTD/svg11.dtd"><svg width="100%" height="100%" viewBox="0 0 320 168" version="1.1" xmlns="http://www.w3.org/2000/svg" xmlns:xlink="http://www.w3.org/1999/xlink" xml:space="preserve" xmlns:serif="http://www.serif.com/" style="fill-rule:evenodd;clip-rule:evenodd;stroke-linejoin:round;stroke-miterlimit:2;"><rect id="Artboard1" x="-42.5" y="-197" width="375" height="667" style="fill:none;"/><g id="Artboard11" serif:id="Artboard1"><g><path d="M102.574,38.215l-75.411,41.361l17.809,31.753l75.411,-41.361l-17.809,-31.753Z" style="fill:#000140;"/><path d="M236.294,2.474l-229.754,126.016l22.576,40.253l229.754,-126.015l-22.576,-40.254Z" style="fill:#000140;"/><path d="M56.616,105.88l-8.517,0l0,-45.982l8.517,-4.657l0,50.639Z" style="fill:#fff;"/><path d="M107.201,0.089l-107.617,59.026l15.285,27.254l107.617,-59.026l-15.285,-27.254Z" style="fill:#000140;"/><path d="M158.316,135.402l161.02,-88.317l-16.406,-29.253l-161.021,88.316l16.407,29.254Z" style="fill:#000140;"/><path d="M216.071,156.697l96.808,-53.098l-12.761,-22.753l-96.809,53.097l12.762,22.754Z" style="fill:#000140;"/><path d="M213.71,124.315l105.137,-57.666l-18.37,-32.753l-105.136,57.665l18.369,32.754Z" style="fill:#000140;"/><path d="M67.409,56.396l10.433,0l13.095,16.846l13.096,-16.846l10.646,0l-18.312,23.163l20.761,26.321l-10.327,0l-15.864,-20.11l-15.969,20.11l-10.647,0l21.293,-26.321l-18.205,-23.163Z" style="fill:#fff;fill-rule:nonzero;"/><path d="M147.443,62.908c-2.484,0 -4.72,0.491 -6.707,1.474c-1.987,0.983 -3.691,2.299 -5.11,3.948c-1.42,1.65 -2.52,3.545 -3.301,5.686c-0.78,2.14 -1.171,4.369 -1.171,6.685c0,2.387 0.355,4.72 1.065,7.001c0.71,2.282 1.756,4.3 3.141,6.054c1.384,1.755 3.105,3.159 5.163,4.212c2.058,1.052 4.401,1.579 7.027,1.579c2.768,0 5.181,-0.509 7.239,-1.527c2.059,-1.017 3.797,-2.386 5.217,-4.106c1.419,-1.719 2.484,-3.702 3.194,-5.948c0.71,-2.246 1.065,-4.633 1.065,-7.16c0,-2.456 -0.391,-4.772 -1.172,-6.948c-0.78,-2.176 -1.88,-4.071 -3.3,-5.686c-1.419,-1.614 -3.176,-2.895 -5.27,-3.843c-2.094,-0.947 -4.454,-1.421 -7.08,-1.421Zm24.913,43.061l-8.517,0l0,-6.843l-0.213,0c-4.33,5.475 -10.079,8.212 -17.247,8.212c-3.691,0 -7.009,-0.72 -9.955,-2.158c-2.945,-1.439 -5.447,-3.352 -7.506,-5.738c-2.058,-2.387 -3.655,-5.142 -4.79,-8.265c-1.136,-3.124 -1.704,-6.405 -1.704,-9.844c0,-3.51 0.55,-6.861 1.65,-10.055c1.1,-3.193 2.68,-5.983 4.738,-8.37c2.058,-2.386 4.578,-4.281 7.559,-5.685c2.981,-1.404 6.352,-2.106 10.114,-2.106c3.407,0 6.601,0.737 9.582,2.211c2.981,1.474 5.5,3.545 7.559,6.212l0.213,0l0,-7.054l8.517,0l0,49.483Z" style="fill:#fff;fill-rule:nonzero;"/><path d="M202.281,105.969l-8.517,0l0,-41.692l-12.534,0l0,-7.791l12.534,0l0,-21.899l8.517,0l0,21.899l29.682,0.05l0,0.308l-13.618,7.629l-16.064,-0.196l0,41.692Z" style="fill:#fff;"/><path d="M237.285,68.552l8.517,-4.672l0,42.169l-8.517,0l0,-37.497Z" style="fill:#fff;"/><path d="M47.785,68.552l8.517,-4.672l0,42.169l-8.517,0l0,-37.497Z" style="fill:#fff;"/><path d="M237.285,37.581l8.517,0l0,11.67l-8.517,4.61l0,-16.28Z" style="fill:#fff;"/><path d="M21.175,117.076l-40.242,21.533" style="fill:none;"/></g><path d="M48.099,37.582l8.517,0l0,11.79l-8.517,4.658l0,-16.448Z" style="fill:#fff;"/></g></svg>