<svg viewBox="0 0 320 168" xmlns="http://www.w3.org/2000/svg" fill-rule="evenodd" clip-rule="evenodd" stroke-linejoin="round" stroke-miterlimit="2"><path fill="none" d="M-42.5-197h375v667h-375z"/><path d="M102.574 38.215L27.163 79.576l17.809 31.753 75.411-41.361-17.809-31.753z" fill="#000140"/><path d="M236.294 2.474L6.54 128.49l22.576 40.253L258.87 42.728 236.294 2.474z" fill="#000140"/><path d="M56.616 105.88h-8.517V59.898l8.517-4.657v50.639z" fill="#fff"/><path d="M107.201.089L-.416 59.115l15.285 27.254 107.617-59.026L107.201.089zm51.115 135.313l161.02-88.317-16.406-29.253-161.021 88.316 16.407 29.254zm57.755 21.295l96.808-53.098-12.761-22.753-96.809 53.097 12.762 22.754z" fill="#000140"/><path d="M213.71 124.315l105.137-57.666-18.37-32.753-105.136 57.665 18.369 32.754z" fill="#000140"/><path d="M67.409 56.396h10.433l13.095 16.846 13.096-16.846h10.646L96.367 79.559l20.761 26.321h-10.327L90.937 85.77l-15.969 20.11H64.321l21.293-26.321-18.205-23.163zm80.034 6.512c-2.484 0-4.72.491-6.707 1.474a16.062 16.062 0 00-5.11 3.948c-1.42 1.65-2.52 3.545-3.301 5.686a19.373 19.373 0 00-1.171 6.685c0 2.387.355 4.72 1.065 7.001.71 2.282 1.756 4.3 3.141 6.054 1.384 1.755 3.105 3.159 5.163 4.212 2.058 1.052 4.401 1.579 7.027 1.579 2.768 0 5.181-.509 7.239-1.527 2.059-1.017 3.797-2.386 5.217-4.106 1.419-1.719 2.484-3.702 3.194-5.948.71-2.246 1.065-4.633 1.065-7.16 0-2.456-.391-4.772-1.172-6.948-.78-2.176-1.88-4.071-3.3-5.686-1.419-1.614-3.176-2.895-5.27-3.843-2.094-.947-4.454-1.421-7.08-1.421zm24.913 43.061h-8.517v-6.843h-.213c-4.33 5.475-10.079 8.212-17.247 8.212-3.691 0-7.009-.72-9.955-2.158-2.945-1.439-5.447-3.352-7.506-5.738-2.058-2.387-3.655-5.142-4.79-8.265-1.136-3.124-1.704-6.405-1.704-9.844 0-3.51.55-6.861 1.65-10.055 1.1-3.193 2.68-5.983 4.738-8.37 2.058-2.386 4.578-4.281 7.559-5.685s6.352-2.106 10.114-2.106c3.407 0 6.601.737 9.582 2.211 2.981 1.474 5.5 3.545 7.559 6.212h.213v-7.054h8.517v49.483z" fill="#fff" fill-rule="nonzero"/><path d="M202.281 105.969h-8.517V64.277H181.23v-7.791h12.534V34.587h8.517v21.899l29.682.05v.308l-13.618 7.629-16.064-.196v41.692zm35.004-37.417l8.517-4.672v42.169h-8.517V68.552zm-189.5 0l8.517-4.672v42.169h-8.517V68.552zm189.5-30.971h8.517v11.67l-8.517 4.61v-16.28z" fill="#fff"/><path d="M21.175 117.076l-40.242 21.533" fill="none"/><path d="M48.099 37.582h8.517v11.79l-8.517 4.658V37.582z" fill="#fff"/></svg>